<svg aria-hidden="true" 
    style="position: absolute; width: 0; height: 0; overflow: hidden;" version="1.1" 
    xmlns="http://www.w3.org/2000/svg" 
    xmlns:xlink="http://www.w3.org/1999/xlink"
    from="icomoon (fontawesome + academicons)">
    <defs>
        <symbol id="twitter" viewBox="0 0 30 32">
            <title>twitter</title>
            <path d="M28.929 7.286c-0.786 1.143-1.768 2.161-2.893 2.982 0.018 0.25 0.018 0.5 0.018 0.75 0 7.625-5.804 16.411-16.411 16.411-3.268 0-6.304-0.946-8.857-2.589 0.464 0.054 0.911 0.071 1.393 0.071 2.696 0 5.179-0.911 7.161-2.464-2.536-0.054-4.661-1.714-5.393-4 0.357 0.054 0.714 0.089 1.089 0.089 0.518 0 1.036-0.071 1.518-0.196-2.643-0.536-4.625-2.857-4.625-5.661v-0.071c0.768 0.429 1.661 0.696 2.607 0.732-1.554-1.036-2.571-2.804-2.571-4.804 0-1.071 0.286-2.054 0.786-2.911 2.839 3.5 7.107 5.786 11.893 6.036-0.089-0.429-0.143-0.875-0.143-1.321 0-3.179 2.571-5.768 5.768-5.768 1.661 0 3.161 0.696 4.214 1.821 1.304-0.25 2.554-0.732 3.661-1.393-0.429 1.339-1.339 2.464-2.536 3.179 1.161-0.125 2.286-0.446 3.321-0.893z"></path>
        </symbol>
        <symbol id="facebook" viewBox="0 0 19 32">
            <title>facebook</title>
            <path d="M17.125 0.214v4.714h-2.804c-2.196 0-2.607 1.054-2.607 2.571v3.375h5.232l-0.696 5.286h-4.536v13.554h-5.464v-13.554h-4.554v-5.286h4.554v-3.893c0-4.518 2.768-6.982 6.804-6.982 1.929 0 3.589 0.143 4.071 0.214z"></path>
        </symbol>
        <symbol id="github" viewBox="0 0 27 32">
            <title>github</title>
            <path d="M13.714 2.286c7.571 0 13.714 6.143 13.714 13.714 0 6.054-3.929 11.196-9.375 13.018-0.696 0.125-0.946-0.304-0.946-0.661 0-0.446 0.018-1.929 0.018-3.768 0-1.286-0.429-2.107-0.929-2.536 3.054-0.339 6.268-1.5 6.268-6.768 0-1.5-0.536-2.714-1.411-3.679 0.143-0.357 0.607-1.75-0.143-3.643-1.143-0.357-3.768 1.411-3.768 1.411-1.089-0.304-2.268-0.464-3.429-0.464s-2.339 0.161-3.429 0.464c0 0-2.625-1.768-3.768-1.411-0.75 1.893-0.286 3.286-0.143 3.643-0.875 0.964-1.411 2.179-1.411 3.679 0 5.25 3.196 6.429 6.25 6.768-0.393 0.357-0.75 0.964-0.875 1.839-0.786 0.357-2.786 0.964-3.982-1.143-0.75-1.304-2.107-1.411-2.107-1.411-1.339-0.018-0.089 0.839-0.089 0.839 0.893 0.411 1.518 2 1.518 2 0.804 2.446 4.625 1.625 4.625 1.625 0 1.143 0.018 2.214 0.018 2.554 0 0.357-0.25 0.786-0.946 0.661-5.446-1.821-9.375-6.964-9.375-13.018 0-7.571 6.143-13.714 13.714-13.714zM5.196 21.982c0.036-0.071-0.018-0.161-0.125-0.214-0.107-0.036-0.196-0.018-0.232 0.036-0.036 0.071 0.018 0.161 0.125 0.214 0.089 0.054 0.196 0.036 0.232-0.036zM5.75 22.589c0.071-0.054 0.054-0.179-0.036-0.286-0.089-0.089-0.214-0.125-0.286-0.054-0.071 0.054-0.054 0.179 0.036 0.286 0.089 0.089 0.214 0.125 0.286 0.054zM6.286 23.393c0.089-0.071 0.089-0.214 0-0.339-0.071-0.125-0.214-0.179-0.304-0.107-0.089 0.054-0.089 0.196 0 0.321s0.232 0.179 0.304 0.125zM7.036 24.143c0.071-0.071 0.036-0.232-0.071-0.339-0.125-0.125-0.286-0.143-0.357-0.054-0.089 0.071-0.054 0.232 0.071 0.339 0.125 0.125 0.286 0.143 0.357 0.054zM8.054 24.589c0.036-0.107-0.071-0.232-0.232-0.286-0.143-0.036-0.304 0.018-0.339 0.125s0.071 0.232 0.232 0.268c0.143 0.054 0.304 0 0.339-0.107zM9.179 24.679c0-0.125-0.143-0.214-0.304-0.196-0.161 0-0.286 0.089-0.286 0.196 0 0.125 0.125 0.214 0.304 0.196 0.161 0 0.286-0.089 0.286-0.196zM10.214 24.5c-0.018-0.107-0.161-0.179-0.321-0.161-0.161 0.036-0.268 0.143-0.25 0.268 0.018 0.107 0.161 0.179 0.321 0.143s0.268-0.143 0.25-0.25z"></path>
        </symbol>
        <symbol id="linkedin" viewBox="0 0 27 32">
            <title>linkedin</title>
            <path d="M6.232 11.161v17.696h-5.893v-17.696h5.893zM6.607 5.696c0.018 1.696-1.268 3.054-3.321 3.054v0h-0.036c-1.982 0-3.25-1.357-3.25-3.054 0-1.732 1.321-3.054 3.321-3.054 2.018 0 3.268 1.321 3.286 3.054zM27.429 18.714v10.143h-5.875v-9.464c0-2.375-0.857-4-2.982-4-1.625 0-2.589 1.089-3.018 2.143-0.143 0.393-0.196 0.911-0.196 1.446v9.875h-5.875c0.071-16.036 0-17.696 0-17.696h5.875v2.571h-0.036c0.768-1.214 2.161-2.982 5.339-2.982 3.875 0 6.768 2.536 6.768 7.964z"></path>
        </symbol>
        <symbol id="researchgate" viewBox="0 0 32 32">
            <title>researchgate</title>
            <path d="M18.675 26.897c-1.469-1.599-3.436-4.167-5.072-7.070 2.702-0.632 4.703-3.169 4.703-5.704 0-3.736-2.902-5.47-6.706-5.47-1.966 0-3.535 0.099-5 0.099-1.337 0-2.672 0-3.504-0.032v0.968l1.266 0.232c0.871 0.168 1.367 0.565 1.367 2.635v13.142c0 2.069-0.496 2.469-1.367 2.634l-1.266 0.237v0.965c0.9-0.032 2.468-0.098 4.037-0.098 1.501 0 3.436 0.066 4.27 0.098v-0.965l-1.735-0.237c-0.9-0.131-1.369-0.565-1.369-2.634v-5.57c0.801 0.067 1.501 0.067 2.571 0.067 2.034 3.635 3.969 6.371 5.068 7.638 1.003 1.203 2.536 1.969 4.471 1.969 0.566 0 1.166-0.099 1.532-0.268v-0.865c-1.2 0-2.401-0.835-3.265-1.77zM10.701 18.692c-1.135 0-1.632-0.030-2.402-0.103v-8.369c0.769-0.067 1.801-0.067 2.702-0.067 2.804 0 4.47 1.47 4.47 4.136 0 2.635-1.8 4.403-4.77 4.403zM20.883 10.273c-0.034-0.175-0.064-0.38-0.090-0.615-0.028-0.238-0.046-0.517-0.057-0.846-0.011-0.327-0.016-0.727-0.016-1.185 0-0.46 0.004-0.854 0.016-1.183 0.011-0.329 0.029-0.612 0.057-0.848 0.027-0.235 0.057-0.44 0.090-0.615 0.032-0.176 0.075-0.344 0.13-0.508 0.287-0.868 0.757-1.52 1.415-1.958 0.657-0.438 1.462-0.658 2.417-0.658 0.491 0 0.937 0.057 1.332 0.173 0.391 0.115 0.741 0.274 1.051 0.477 0.305 0.201 0.568 0.438 0.786 0.706 0.223 0.269 0.403 0.556 0.544 0.864 0.055 0.098 0.039 0.176-0.048 0.231l-1.214 0.499c-0.103 0.055-0.175 0.027-0.232-0.082-0.272-0.505-0.505-0.836-0.887-1.077-0.386-0.24-0.744-0.354-1.332-0.354-0.64 0-0.926 0.127-1.326 0.414-0.398 0.281-0.689 0.635-0.861 1.175-0.035 0.097-0.066 0.218-0.103 0.36-0.030 0.144-0.055 0.321-0.070 0.527s-0.030 0.462-0.044 0.764c-0.009 0.302-0.013 0.668-0.013 1.092 0 0.426 0.004 0.793 0.013 1.094 0.013 0.3 0.028 0.556 0.044 0.763 0.016 0.209 0.040 0.384 0.070 0.529 0.037 0.14 0.068 0.26 0.103 0.358 0.172 0.537 0.418 0.831 0.779 1.066 0.357 0.239 0.768 0.411 1.408 0.411 0.568 0 1.089-0.162 1.428-0.409 0.336-0.247 0.615-0.573 0.74-1.018 0.055-0.188 0.125-0.421 0.173-0.707 0.044-0.286 0.044-0.588 0.044-1.006 0-0.066-0.037-0.1-0.098-0.1h-1.944c-0.109 0-0.163-0.054-0.163-0.163v-1.114c0-0.111 0.054-0.164 0.163-0.164h3.568c0.112 0 0.164 0.054 0.164 0.164v0.952c0 0.505 0 0.973-0.052 1.406-0.050 0.433-0.118 0.808-0.204 1.082-0.272 0.857-0.705 1.466-1.367 1.921-0.664 0.458-1.521 0.705-2.451 0.705-0.956 0-1.761-0.22-2.417-0.657-0.658-0.442-1.128-1.091-1.415-1.959-0.055-0.164-0.097-0.333-0.13-0.509z"></path>
        </symbol>
        <symbol id="gscholar" viewBox="0 0 32 32">
            <title>gscholar</title>
            <path d="M25.39 5.157v-1.946l1.412-1.103h-15.285l-9.23 8.023h6.121c-0.011 0.152-0.016 0.289-0.016 0.445 0 1.49 0.516 2.722 1.549 3.706 1.033 0.986 2.305 1.476 3.811 1.476 0.352 0 0.697-0.026 1.032-0.073-0.208 0.465-0.313 0.895-0.313 1.297 0 0.706 0.322 1.46 0.962 2.261-2.804 0.191-4.864 0.696-6.177 1.512-0.753 0.464-1.358 1.051-1.814 1.753-0.457 0.707-0.684 1.466-0.684 2.284 0 0.689 0.147 1.31 0.444 1.863s0.684 1.006 1.166 1.357c0.48 0.355 1.034 0.65 1.659 0.891 0.624 0.239 1.244 0.409 1.862 0.505 0.617 0.096 1.229 0.143 1.837 0.143 0.963 0 1.926-0.124 2.898-0.371 0.969-0.249 1.878-0.618 2.728-1.107 0.848-0.486 1.538-1.15 2.067-1.981 0.528-0.835 0.793-1.773 0.793-2.811 0-0.787-0.161-1.503-0.482-2.154-0.319-0.648-0.71-1.182-1.176-1.597-0.465-0.415-0.929-0.797-1.395-1.141-0.465-0.346-0.858-0.697-1.177-1.059-0.32-0.361-0.481-0.718-0.481-1.071s0.124-0.691 0.373-1.019c0.247-0.329 0.548-0.647 0.901-0.951s0.706-0.641 1.057-1.010c0.352-0.368 0.653-0.845 0.901-1.43 0.249-0.585 0.372-1.247 0.372-1.984 0-0.961-0.182-1.748-0.539-2.381-0.042-0.073-0.087-0.129-0.134-0.216l4.067-3.335v1.223c-0.528 0.066-0.473 0.382-0.473 0.76v9.195c0 0.426 0.348 0.774 0.774 0.774h0.285c0.426 0 0.774-0.348 0.774-0.774v-9.195c0-0.377 0.056-0.692-0.469-0.76zM17.717 21.056c0.082 0.054 0.265 0.199 0.552 0.432 0.289 0.232 0.486 0.407 0.591 0.53 0.103 0.119 0.256 0.298 0.456 0.539 0.201 0.241 0.337 0.451 0.409 0.624 0.071 0.177 0.144 0.39 0.218 0.639 0.070 0.246 0.106 0.499 0.106 0.755 0 1.218-0.469 2.121-1.405 2.706-0.938 0.585-2.056 0.877-3.354 0.877-0.657 0-1.301-0.078-1.934-0.228-0.632-0.151-1.237-0.381-1.814-0.686s-1.042-0.729-1.394-1.272c-0.353-0.546-0.529-1.173-0.529-1.876 0-0.738 0.2-1.379 0.602-1.923 0.4-0.545 0.925-0.957 1.575-1.237 0.648-0.282 1.304-0.482 1.97-0.6 0.665-0.122 1.343-0.183 2.032-0.183 0.319 0 0.567 0.018 0.744 0.050 0.032 0.016 0.217 0.148 0.553 0.398 0.336 0.247 0.545 0.4 0.625 0.456zM17.477 13.868c-0.529 0.633-1.267 0.95-2.212 0.95-0.848 0-1.593-0.341-2.234-1.023-0.643-0.681-1.102-1.453-1.382-2.318-0.281-0.865-0.422-1.714-0.422-2.548 0-0.979 0.257-1.812 0.77-2.499 0.514-0.69 1.251-1.035 2.211-1.035 0.849 0 1.599 0.36 2.247 1.083 0.65 0.721 1.116 1.53 1.395 2.427 0.28 0.896 0.42 1.753 0.42 2.572 0 0.961-0.265 1.759-0.792 2.391z"></path>
        </symbol>
        <symbol id="orcid" viewBox="0 0 32 32">
            <title>orcid</title>
            <path d="M20.468 12.429c-0.394-0.184-0.767-0.308-1.121-0.366-0.352-0.061-0.917-0.089-1.699-0.089h-2.031v8.451h2.082c0.812 0 1.443-0.056 1.893-0.167s0.826-0.25 1.126-0.422c0.301-0.17 0.576-0.38 0.827-0.63 0.802-0.814 1.203-1.841 1.203-3.083 0-1.22-0.412-2.216-1.236-2.987-0.304-0.286-0.654-0.523-1.045-0.708zM16.008 2.108c-7.579 0-13.721 6.144-13.721 13.721s6.142 13.721 13.721 13.721 13.721-6.144 13.721-13.721-6.142-13.721-13.721-13.721zM11.452 21.888h-1.626v-11.362h1.626v11.362zM10.638 9.339c-0.616 0-1.118-0.499-1.118-1.118 0-0.615 0.501-1.117 1.118-1.117 0.619 0 1.119 0.501 1.119 1.117-0.001 0.621-0.501 1.118-1.119 1.118zM23.993 18.39c-0.293 0.694-0.71 1.305-1.253 1.831-0.552 0.544-1.195 0.951-1.928 1.228-0.429 0.167-0.821 0.28-1.179 0.338-0.359 0.056-1.042 0.083-2.051 0.083h-3.594v-11.345h3.83c1.547 0 2.768 0.23 3.669 0.694 0.9 0.463 1.614 1.147 2.146 2.046 0.532 0.9 0.798 1.882 0.798 2.943 0.001 0.762-0.148 1.489-0.439 2.182z"></path>
        </symbol>

        <symbol id="hamburger" viewBox='0 0 32 32'>
            <rect width='30' height='6'/>
            <rect y='24' width='30' height='6'/>
            <rect y='12' width='30' height='6'/>
        </symbol>
    </defs>
</svg>
